<svg width="168" height="118" viewBox="0 0 168 118" fill="none" xmlns="http://www.w3.org/2000/svg">
<ellipse cx="83.9937" cy="59" rx="58.9078" ry="59" fill="#FAFFBC"/>
<path d="M58.9684 56.5907C58.7168 56.5571 58.3729 56.49 57.9368 56.3894C57.5006 56.3055 57.0561 56.1294 56.6032 55.861C56.1503 55.5926 55.7644 55.1816 55.4457 54.628C55.127 54.0912 54.9676 53.3699 54.9676 52.4641C54.9676 51.424 55.1773 50.2833 55.5967 49.042C56.0328 47.7839 56.5612 46.4754 57.1819 45.1166C57.8026 43.7579 58.3981 42.4159 58.9684 41.0907C59.4214 40.0338 59.6478 39.2286 59.6478 38.6751C59.6478 38.1215 59.4381 37.8447 59.0188 37.8447C58.5491 37.8447 57.8445 38.2221 56.9051 38.977C55.9825 39.7151 54.9089 40.839 53.6843 42.3488C53.3656 42.7514 52.9546 43.3133 52.4514 44.0347C51.9481 44.7392 51.4113 45.5276 50.841 46.3999C50.2706 47.2554 49.7087 48.1277 49.1551 49.0168C48.6183 49.8891 48.1402 50.6943 47.7208 51.4324C47.3182 52.1705 47.0247 52.7576 46.8402 53.1938C46.6221 53.7138 46.3705 54.0661 46.0853 54.2506C45.8001 54.4519 45.5317 54.5525 45.2801 54.5525C45.062 54.5525 44.8691 54.4938 44.7014 54.3764C44.5504 54.259 44.4749 54.1164 44.4749 53.9486C44.4749 53.848 44.5001 53.7641 44.5504 53.697C44.651 53.4957 44.9194 53.0092 45.3556 52.2376C45.7917 51.466 46.2866 50.4427 46.8402 49.1678C47.3937 47.8761 47.9221 46.3831 48.4254 44.6889C48.9454 42.9778 49.3312 41.0907 49.5829 39.0273C49.6164 38.7925 49.6332 38.5409 49.6332 38.2725C49.6332 37.6853 49.5325 37.2576 49.3312 36.9892C49.1299 36.704 48.8615 36.5614 48.526 36.5614C48.157 36.5614 47.7376 36.7208 47.2679 37.0395C46.7982 37.3582 46.3201 37.8195 45.8337 38.4234C44.9949 39.4803 44.2568 40.4616 43.6194 41.3674C42.9819 42.2565 42.3948 43.1456 41.858 44.0347C41.338 44.9237 40.818 45.8715 40.2979 46.878C39.7947 47.8845 39.2579 49.0168 38.6875 50.2749C38.1172 51.5163 37.463 52.9589 36.7249 54.6029C36.6074 54.8713 36.4061 55.0642 36.121 55.1816C35.8526 55.299 35.6009 55.3577 35.3661 55.3577C35.1313 55.3577 34.9383 55.3074 34.7874 55.2068C34.6364 55.1061 34.5861 54.9635 34.6364 54.779C35.0725 54.108 35.5422 53.2609 36.0455 52.2376C36.5487 51.2143 37.052 50.0988 37.5552 48.891C38.0753 47.6664 38.5533 46.4335 38.9895 45.1921C39.4424 43.934 39.8282 42.7514 40.147 41.6442C40.4657 40.5203 40.6838 39.5474 40.8012 38.7254C40.8347 38.457 40.8599 38.2054 40.8767 37.9705C40.8934 37.7357 40.9018 37.5092 40.9018 37.2911C40.9018 35.9995 40.625 35.0768 40.0715 34.5233C39.5347 33.9697 38.8385 33.6929 37.983 33.6929C37.2617 33.6929 36.4732 33.8607 35.6177 34.1962C34.779 34.5149 33.9235 34.9594 33.0512 35.5298C32.1956 36.1001 31.3737 36.7627 30.5852 37.5176C29.7968 38.2557 29.1007 39.0525 28.4968 39.908C27.8929 40.7468 27.4316 41.6023 27.1128 42.4746C26.8948 43.0953 26.727 43.6908 26.6096 44.2611C26.5089 44.8147 26.4586 45.3347 26.4586 45.8212C26.4586 46.7606 26.6264 47.5574 26.9619 48.2116C27.3141 48.8658 27.7754 49.3607 28.3458 49.6962C28.9329 50.0317 29.562 50.1994 30.233 50.1994C30.4678 50.1994 30.7278 50.1743 31.013 50.124C31.315 50.0569 31.5666 49.9898 31.7679 49.9227C32.2543 49.7381 32.724 49.453 33.177 49.0671C33.6299 48.6645 34.0325 48.2032 34.3848 47.6832C34.737 47.1632 35.0138 46.6348 35.2151 46.098C35.4164 45.5612 35.5171 45.0579 35.5171 44.5882C35.5171 44.1018 35.3829 43.6992 35.1145 43.3804C34.8461 43.0617 34.4183 42.9023 33.8312 42.9023C33.7641 42.9023 33.6886 42.9107 33.6047 42.9275C33.5376 42.9275 33.4621 42.9275 33.3783 42.9275H33.3028C33.1854 42.9275 33.0763 42.9107 32.9757 42.8772C32.875 42.8269 32.8247 42.7681 32.8247 42.701C32.8247 42.6339 32.9086 42.5585 33.0763 42.4746C33.2608 42.3907 33.588 42.3488 34.0577 42.3488C34.8125 42.3488 35.3745 42.5752 35.7435 43.0282C36.1294 43.4643 36.3223 44.0263 36.3223 44.714C36.3223 45.3347 36.1545 46.0057 35.819 46.727C35.4835 47.4484 34.9803 48.1361 34.3093 48.7904C33.6383 49.4446 32.7911 49.9814 31.7679 50.4007C31.164 50.6356 30.5769 50.753 30.0065 50.753C29.1678 50.753 28.3709 50.5433 27.6161 50.124C26.8612 49.6878 26.2489 49.0755 25.7792 48.2871C25.3095 47.4819 25.0747 46.5341 25.0747 45.4438C25.0747 44.9573 25.125 44.4456 25.2256 43.9088C25.3431 43.3553 25.5276 42.7849 25.7792 42.1978C26.3328 40.9061 27.0793 39.7151 28.0187 38.6247C28.9748 37.5176 30.0317 36.5614 31.1891 35.7562C32.3466 34.9342 33.5209 34.2968 34.7119 33.8439C35.9029 33.391 37.01 33.1645 38.0333 33.1645C39.2747 33.1645 40.2979 33.5335 41.1031 34.2716C41.9251 35.0097 42.3361 36.2008 42.3361 37.8447C42.3361 37.9621 42.3277 38.1215 42.3109 38.3228C42.3109 38.5073 42.3025 38.6499 42.2858 38.7505C42.1851 39.6061 42.009 40.4616 41.7574 41.3171C41.5225 42.1726 41.2625 42.9946 40.9773 43.783C40.927 43.9172 40.8851 44.0598 40.8515 44.2108C40.8347 44.345 40.8263 44.4373 40.8263 44.4876C40.8263 44.5715 40.8431 44.6134 40.8767 44.6134C40.9438 44.6134 41.078 44.4373 41.2793 44.085C41.6651 43.3804 42.009 42.7681 42.3109 42.2481C42.6296 41.7113 42.94 41.2249 43.2419 40.7887C43.5439 40.3526 43.871 39.908 44.2233 39.4551C44.5755 39.0022 44.9781 38.4989 45.4311 37.9454C45.9511 37.3247 46.5466 36.8298 47.2176 36.4608C47.8886 36.0917 48.5344 35.9072 49.1551 35.9072C49.7087 35.9072 50.1784 36.0917 50.5642 36.4608C50.95 36.8298 51.1429 37.4589 51.1429 38.348C51.1429 38.4486 51.1429 38.5325 51.1429 38.5996C51.1429 38.6667 51.1345 38.7673 51.1178 38.9015C50.9668 40.5119 50.6481 42.0971 50.1616 43.6572C49.6751 45.2005 49.1719 46.7606 48.6519 48.3374C49.1719 47.5322 49.8764 46.509 50.7655 45.2676C51.6546 44.0263 52.6275 42.743 53.6843 41.4178C54.976 39.8074 56.1754 38.5996 57.2826 37.7944C58.3897 36.9892 59.3039 36.5866 60.0253 36.5866C60.9311 36.5866 61.384 37.1402 61.384 38.2473C61.384 38.6667 61.3002 39.1699 61.1324 39.757C60.9814 40.3442 60.7382 40.9648 60.4027 41.6191C60.0337 42.3572 59.6227 43.2127 59.1697 44.1856C58.7336 45.1418 58.3142 46.1483 57.9116 47.2051C57.509 48.2619 57.1735 49.302 56.9051 50.3253C56.6535 51.3318 56.5277 52.2628 56.5277 53.1183C56.5277 54.0409 56.7374 54.7874 57.1567 55.3577C57.5929 55.9449 58.3394 56.2217 59.3962 56.1881H59.5472C59.7988 56.1881 59.9246 56.2384 59.9246 56.3391C59.9246 56.4062 59.8407 56.4733 59.673 56.5404C59.5052 56.6075 59.2704 56.6242 58.9684 56.5907ZM61.4328 53.7977C60.8121 53.7977 60.2502 53.5964 59.7469 53.1938C59.2604 52.7912 59.0172 52.1789 59.0172 51.3569C59.0172 50.602 59.2017 49.7968 59.5708 48.9413C59.9398 48.069 60.4095 47.3058 60.9799 46.6515C61.4663 46.0812 62.0115 45.6115 62.6154 45.2425C63.2193 44.8734 63.7897 44.6889 64.3265 44.6889C64.6955 44.6889 65.0142 44.7895 65.2826 44.9908C65.5678 45.2089 65.7104 45.5192 65.7104 45.9218C65.7104 46.3412 65.551 46.8025 65.2323 47.3058C64.9136 47.809 64.4607 48.2787 63.8735 48.7149C63.6219 48.8994 63.3032 49.0755 62.9174 49.2433C62.5315 49.411 62.1457 49.5536 61.7599 49.671C61.3741 49.7717 61.0553 49.822 60.8037 49.822C60.7199 50.0233 60.636 50.2917 60.5521 50.6272C60.485 50.9627 60.4515 51.3066 60.4515 51.6589C60.4515 52.0782 60.5353 52.4557 60.7031 52.7912C60.8708 53.1267 61.1812 53.2944 61.6341 53.2944C62.1877 53.2944 62.6909 53.1351 63.1438 52.8163C63.5968 52.4976 63.9994 52.1034 64.3516 51.6337C64.7039 51.1472 64.9975 50.6608 65.2323 50.1743C65.4839 49.6878 65.6852 49.2768 65.8362 48.9413C65.9369 48.7065 66.0711 48.5891 66.2388 48.5891C66.3227 48.5891 66.3646 48.631 66.3646 48.7149C66.3646 48.782 66.3395 48.8658 66.2891 48.9665C66.0543 49.4697 65.8027 50.0065 65.5343 50.5769C65.2659 51.1305 64.9471 51.6589 64.5781 52.1621C64.209 52.6486 63.7645 53.0428 63.2445 53.3447C62.7412 53.6467 62.1373 53.7977 61.4328 53.7977ZM60.9799 49.3691C61.2147 49.3691 61.6089 49.2852 62.1625 49.1175C62.7161 48.9329 63.2193 48.6478 63.6722 48.2619C64.1084 47.8761 64.4439 47.4567 64.6787 47.0038C64.9136 46.5341 65.031 46.1399 65.031 45.8212C65.031 45.4521 64.8968 45.2676 64.6284 45.2676C64.4271 45.2676 64.1503 45.4018 63.7981 45.6702C63.4458 45.9386 63.0096 46.3915 62.4896 47.029C62.1709 47.4316 61.8689 47.8677 61.5838 48.3374C61.2986 48.8071 61.0973 49.151 60.9799 49.3691ZM68.882 53.7222C68.5633 53.7222 68.2446 53.5964 67.9259 53.3447C67.6071 53.0763 67.4478 52.6486 67.4478 52.0615C67.4478 51.6085 67.5568 51.0885 67.7749 50.5014C67.9762 49.931 68.2446 49.3775 68.5801 48.8407C68.9324 48.3039 69.184 47.8677 69.335 47.5322C69.3853 47.398 69.4105 47.2806 69.4105 47.18C69.4105 46.878 69.2175 46.6599 68.8317 46.5257C68.4627 46.3915 67.9762 46.316 67.3723 46.2993L67.0704 47.1296C66.8858 47.6664 66.6258 48.2955 66.2903 49.0168C65.9716 49.7381 65.6109 50.4343 65.2083 51.1053C64.8225 51.7763 64.4199 52.3131 64.0005 52.7157C63.967 52.7492 63.925 52.766 63.8747 52.766C63.8076 52.766 63.7657 52.7241 63.7489 52.6402C63.7154 52.5563 63.7489 52.4557 63.8496 52.3383C64.5038 51.466 65.0909 50.5014 65.6109 49.4446C66.131 48.371 66.5671 47.2806 66.9194 46.1735C67.2884 45.0663 67.5568 44.043 67.7246 43.1036C67.7749 42.8352 67.8672 42.6423 68.0014 42.5249C68.1356 42.3907 68.2781 42.3236 68.4291 42.3236C68.6472 42.3236 68.8485 42.4326 69.033 42.6507C69.2175 42.852 69.3098 43.1456 69.3098 43.5314C69.3098 43.5985 69.3014 43.674 69.2846 43.7579C69.2846 43.8417 69.2763 43.9256 69.2595 44.0095C69.1924 44.3618 68.9911 44.6973 68.6556 45.016C68.3369 45.3179 68.0768 45.5444 67.8755 45.6954C68.0433 45.7121 68.2194 45.7289 68.404 45.7457C68.5885 45.7457 68.7898 45.7457 69.0079 45.7457C69.7963 45.7457 70.5763 45.6954 71.348 45.5947C71.3815 45.6954 71.3983 45.7709 71.3983 45.8212C71.3983 46.0393 71.3312 46.316 71.197 46.6515C71.0796 46.987 70.9537 47.289 70.8196 47.5574C70.7525 47.7084 70.6183 47.9852 70.417 48.3878C70.2157 48.7736 69.9976 49.2181 69.7627 49.7214C69.5279 50.2078 69.3266 50.6943 69.1588 51.1808C69.0079 51.6505 68.9324 52.0531 68.9324 52.3886C68.9324 52.8247 69.1001 53.0428 69.4356 53.0428C69.6872 53.0428 69.964 52.8834 70.266 52.5647C70.5679 52.2292 70.8615 51.8266 71.1467 51.3569C71.4486 50.8704 71.717 50.4007 71.9519 49.9478C72.2035 49.4781 72.3964 49.1091 72.5306 48.8407C72.5977 48.6729 72.69 48.5891 72.8074 48.5891C72.8745 48.5891 72.908 48.6478 72.908 48.7652C72.908 48.8323 72.8829 48.9329 72.8325 49.0671C72.648 49.453 72.4299 49.8891 72.1783 50.3756C71.9267 50.8621 71.6415 51.3401 71.3228 51.8098C71.0208 52.2795 70.6854 52.6905 70.3163 53.0428C69.964 53.3783 69.5782 53.5964 69.1588 53.697C69.1085 53.7138 69.0162 53.7222 68.882 53.7222ZM74.5371 53.7977C73.5809 53.7977 72.9099 53.5712 72.5241 53.1183C72.1383 52.6486 71.9454 52.0782 71.9454 51.4072C71.9454 50.6691 72.1131 49.8807 72.4486 49.042C72.8009 48.2032 73.2119 47.4735 73.6816 46.8528C74.168 46.1986 74.7048 45.6954 75.292 45.3431C75.8791 44.9741 76.4746 44.7895 77.0785 44.7895C77.7159 44.7895 78.1856 44.9489 78.4876 45.2676C78.7895 45.5863 78.907 46.0141 78.8399 46.5509C78.8063 46.8864 78.647 47.2219 78.3618 47.5574C78.0766 47.8761 77.7914 48.0355 77.5063 48.0355C77.3721 48.0355 77.2546 47.9852 77.154 47.8845C77.2882 47.7168 77.4308 47.5155 77.5817 47.2806C77.7327 47.0458 77.8418 46.8193 77.9089 46.6012C77.976 46.3999 78.0095 46.1986 78.0095 45.9973C78.0095 45.5779 77.8082 45.3683 77.4056 45.3683C76.9527 45.3683 76.4746 45.6031 75.9714 46.0728C75.4849 46.5257 75.0571 47.0206 74.6881 47.5574C74.5371 47.7587 74.3526 48.0774 74.1345 48.5136C73.9332 48.9329 73.7487 49.4026 73.5809 49.9227C73.4132 50.4259 73.3293 50.9208 73.3293 51.4072C73.3293 51.9105 73.4383 52.3634 73.6564 52.766C73.8913 53.1518 74.2771 53.3447 74.8139 53.3447C75.552 53.3447 76.181 53.1183 76.7011 52.6654C77.2379 52.1957 77.7076 51.6169 78.1102 50.9292C78.5295 50.2414 78.907 49.5704 79.2425 48.9162C79.3431 48.7149 79.4438 48.6142 79.5444 48.6142C79.6283 48.6142 79.6702 48.6813 79.6702 48.8155C79.6702 48.8826 79.6451 48.9665 79.5947 49.0671C79.1921 49.9394 78.7812 50.7362 78.3618 51.4576C77.9424 52.1789 77.4308 52.7492 76.8269 53.1686C76.2398 53.588 75.4765 53.7977 74.5371 53.7977ZM84.4446 53.7725C84.2601 53.7893 84.0504 53.7473 83.8155 53.6467C83.5807 53.546 83.371 53.3615 83.1865 53.0931C83.0187 52.8247 82.9348 52.4473 82.9348 51.9608C82.9348 51.5582 83.0103 51.0717 83.1613 50.5014C82.96 50.8201 82.7 51.2143 82.3813 51.684C82.0626 52.137 81.7187 52.5396 81.3496 52.8918C81.0309 53.1938 80.7289 53.4118 80.4438 53.546C80.1586 53.6802 79.8986 53.7473 79.6637 53.7473C79.2276 53.7473 78.8753 53.5544 78.6069 53.1686C78.3385 52.766 78.2043 52.246 78.2043 51.6085C78.2043 50.9375 78.3721 50.1743 78.7076 49.3188C79.0431 48.4632 79.5882 47.5742 80.3431 46.6515C80.8296 46.0644 81.4167 45.5947 82.1045 45.2425C82.809 44.8734 83.4968 44.6889 84.1678 44.6889C84.5536 44.6889 84.9227 44.756 85.275 44.8902C85.6272 45.0076 85.9376 45.2089 86.206 45.4941C86.3234 45.6115 86.3821 45.7457 86.3821 45.8967C86.3821 45.9973 86.3402 46.0812 86.2563 46.1483C86.1724 46.2154 86.0634 46.2322 85.9292 46.1986C85.7447 45.6115 85.3504 45.3179 84.7465 45.3179C84.4614 45.3179 84.1343 45.4102 83.7652 45.5947C83.1949 45.8967 82.5994 46.3915 81.9787 47.0793C81.3748 47.7671 80.8464 48.48 80.3934 49.2181C80.3263 49.3188 80.2173 49.5117 80.0663 49.7968C79.9321 50.082 79.7979 50.4007 79.6637 50.753C79.5295 51.1053 79.4373 51.4492 79.3869 51.7847C79.3702 51.8853 79.3618 51.9608 79.3618 52.0111C79.3618 52.0447 79.3618 52.1034 79.3618 52.1873C79.3618 52.7408 79.5715 53.0176 79.9908 53.0176C80.4941 53.0176 81.0644 52.6486 81.7019 51.9105C82.138 51.3737 82.5323 50.8117 82.8845 50.2246C83.2368 49.6375 83.5975 49.0084 83.9665 48.3374C84.2181 47.8845 84.453 47.5071 84.6711 47.2051C84.8891 46.9032 85.1995 46.7522 85.6021 46.7522C85.7866 46.7522 85.9711 46.7774 86.1556 46.8277C86.3402 46.878 86.5331 46.8864 86.7344 46.8528C86.6002 46.987 86.4156 47.2387 86.1808 47.6077C85.9627 47.9768 85.7279 48.3961 85.4763 48.8658C85.2246 49.3355 84.9982 49.8136 84.7969 50.3001C84.5956 50.7866 84.453 51.2059 84.3691 51.5582C84.3523 51.6589 84.3272 51.8015 84.2936 51.986C84.2768 52.1705 84.2685 52.3047 84.2685 52.3886C84.2685 52.8583 84.4027 53.0931 84.6711 53.0931C84.9395 53.0931 85.2246 52.9338 85.5266 52.615C85.8453 52.2963 86.1556 51.9021 86.4576 51.4324C86.7595 50.9627 87.0363 50.493 87.2879 50.0233C87.5396 49.5368 87.7409 49.1426 87.8918 48.8407C87.9589 48.6729 88.0596 48.5891 88.1938 48.5891C88.2777 48.5891 88.3196 48.6478 88.3196 48.7652C88.3196 48.8155 88.2944 48.9078 88.2441 49.042C88.0428 49.4613 87.7996 49.9394 87.5144 50.4762C87.2292 50.9963 86.9189 51.5079 86.5834 52.0111C86.2479 52.4976 85.8956 52.9086 85.5266 53.2441C85.1743 53.5628 84.8136 53.739 84.4446 53.7725ZM93.4166 53.697C92.9636 53.697 92.5862 53.4706 92.2843 53.0176C92.2004 52.8834 92.1249 52.7073 92.0578 52.4892C91.9907 52.2712 91.9571 52.0279 91.9571 51.7595C91.9571 51.6085 91.9655 51.4576 91.9823 51.3066C91.9991 51.1388 92.0326 50.9711 92.083 50.8033C91.8481 51.1724 91.5713 51.5834 91.2526 52.0363C90.9507 52.4725 90.5984 52.8583 90.1958 53.1938C89.81 53.5125 89.3738 53.6719 88.8873 53.6719C88.7196 53.6719 88.5434 53.6467 88.3589 53.5964C87.906 53.4622 87.5789 53.2273 87.3776 52.8918C87.1931 52.5563 87.1008 52.1537 87.1008 51.684C87.1008 51.164 87.2015 50.5937 87.4028 49.973C87.6208 49.3523 87.8892 48.7484 88.2079 48.1613C88.5434 47.5742 88.8873 47.0709 89.2396 46.6515C89.7429 46.0644 90.3216 45.5947 90.9758 45.2425C91.63 44.8902 92.2926 44.714 92.9636 44.714C93.5675 44.714 94.1379 44.8734 94.6747 45.1921C94.9263 44.7224 95.1947 44.2024 95.4799 43.6321C95.7651 43.0449 96.0502 42.4662 96.3354 41.8959C96.6206 41.3255 96.8722 40.8055 97.0903 40.3358C97.3084 39.8493 97.4761 39.4803 97.5935 39.2286C97.8452 38.6415 98.08 38.2725 98.2981 38.1215C98.5329 37.9537 98.8097 37.8699 99.1284 37.8699C99.313 37.8699 99.5143 37.895 99.7323 37.9454C99.9672 37.9789 100.194 37.9873 100.412 37.9705C100.311 38.0712 100.101 38.3647 99.7827 38.8512C99.4807 39.3209 99.12 39.9248 98.7007 40.6629C98.2813 41.401 97.8284 42.2146 97.3419 43.1036C96.8722 43.9759 96.4025 44.865 95.9328 45.7709C95.4799 46.6599 95.0521 47.5071 94.6495 48.3123C94.2637 49.1007 93.9534 49.7801 93.7185 50.3504C93.6514 50.4846 93.5508 50.7614 93.4166 51.1808C93.2991 51.5834 93.2404 51.9357 93.2404 52.2376C93.2404 52.4557 93.2908 52.6486 93.3914 52.8163C93.4921 52.9673 93.6598 53.0428 93.8947 53.0428C94.2134 53.0428 94.5321 52.8834 94.8508 52.5647C95.1863 52.2292 95.505 51.8266 95.807 51.3569C96.1089 50.8704 96.3773 50.4007 96.6122 49.9478C96.847 49.4781 97.0232 49.1091 97.1406 48.8407C97.2245 48.6562 97.3251 48.5639 97.4426 48.5639C97.5432 48.5639 97.5935 48.6394 97.5935 48.7904C97.5935 48.8071 97.5935 48.8407 97.5935 48.891C97.5935 48.9246 97.5768 48.9665 97.5432 49.0168C97.3922 49.3691 97.1825 49.8052 96.9141 50.3253C96.6625 50.8453 96.3606 51.3653 96.0083 51.8853C95.656 52.4054 95.2618 52.8415 94.8257 53.1938C94.3895 53.5293 93.9198 53.697 93.4166 53.697ZM89.0635 52.9421C89.2983 52.9421 89.5919 52.8163 89.9442 52.5647C90.2964 52.2963 90.6739 51.8769 91.0765 51.3066C91.5462 50.6356 92.083 49.7968 92.6869 48.7904C93.2908 47.7839 93.8863 46.7186 94.4734 45.5947C94.2553 45.3934 94.0037 45.2928 93.7185 45.2928C93.2488 45.2928 92.7204 45.5108 92.1333 45.947C91.5629 46.3831 91.001 46.9367 90.4474 47.6077C89.9106 48.2787 89.4577 48.9581 89.0886 49.6459C88.837 50.1156 88.6525 50.5433 88.5351 50.9292C88.4344 51.315 88.3841 51.6505 88.3841 51.9357C88.3841 52.6067 88.6105 52.9421 89.0635 52.9421ZM99.9623 43.4811C99.7107 43.4811 99.501 43.3972 99.3333 43.2295C99.1823 43.0449 99.1068 42.8269 99.1068 42.5752C99.1068 42.2565 99.2326 41.9797 99.4842 41.7449C99.7359 41.51 100.013 41.3926 100.315 41.3926C100.583 41.3926 100.801 41.4765 100.969 41.6442C101.137 41.812 101.22 42.0133 101.22 42.2481C101.22 42.5668 101.095 42.852 100.843 43.1036C100.591 43.3553 100.298 43.4811 99.9623 43.4811ZM97.9242 53.697C97.3035 53.697 96.8674 53.5209 96.6157 53.1686C96.3641 52.7996 96.2383 52.3802 96.2383 51.9105C96.2383 51.6589 96.2635 51.4072 96.3138 51.1556C96.3809 50.8872 96.4564 50.644 96.5402 50.4259L98.2261 46.1231C98.2765 45.9889 98.3016 45.8715 98.3016 45.7709C98.3016 45.6031 98.2597 45.4605 98.1758 45.3431C98.0919 45.2089 98.0332 45.1166 97.9997 45.0663L99.3836 45.016C99.6352 44.9992 99.8114 45.0328 99.912 45.1166C100.029 45.1837 100.088 45.2676 100.088 45.3683C100.088 45.4689 100.029 45.6534 99.912 45.9218L97.8235 50.8285C97.8235 50.8285 97.7732 50.9375 97.6726 51.1556C97.5887 51.3569 97.5384 51.4911 97.5216 51.5582C97.4713 51.8098 97.4377 51.9692 97.4209 52.0363C97.4042 52.1034 97.3958 52.1453 97.3958 52.1621C97.3958 52.1789 97.3958 52.246 97.3958 52.3634C97.3958 52.5815 97.4461 52.766 97.5467 52.917C97.6642 53.068 97.8571 53.1434 98.1255 53.1434C98.2932 53.1434 98.4861 53.0931 98.7042 52.9925C98.9223 52.8918 99.0816 52.7912 99.1823 52.6905C99.6017 52.2544 100.013 51.684 100.415 50.9795C100.835 50.2582 101.22 49.5452 101.573 48.8407C101.64 48.6729 101.724 48.5891 101.824 48.5891C101.908 48.5891 101.95 48.6478 101.95 48.7652C101.95 48.8323 101.925 48.9329 101.875 49.0671C101.707 49.4194 101.497 49.8556 101.246 50.3756C100.994 50.8956 100.692 51.4156 100.34 51.9357C100.004 52.4389 99.6352 52.8583 99.2326 53.1938C98.83 53.5293 98.3939 53.697 97.9242 53.697ZM99.1768 53.8983C99.7807 52.6738 100.359 51.466 100.913 50.2749C101.483 49.0671 102.062 47.9181 102.649 46.8277C102.985 46.2238 103.261 45.8044 103.48 45.5696C103.714 45.3179 104.025 45.1921 104.411 45.1921C104.545 45.1921 104.687 45.2173 104.838 45.2676C104.989 45.3012 105.14 45.3179 105.291 45.3179C105.392 45.3179 105.467 45.3096 105.518 45.2928C105.283 45.427 104.981 45.7625 104.612 46.2993C104.243 46.8193 103.865 47.4232 103.48 48.111C103.094 48.7987 102.75 49.4446 102.448 50.0485C102.767 49.6626 103.094 49.2768 103.429 48.891C103.782 48.5052 104.167 48.1361 104.587 47.7839C104.989 47.4316 105.467 47.0709 106.021 46.7019C106.591 46.316 107.145 45.9973 107.682 45.7457C108.218 45.4941 108.646 45.3683 108.965 45.3683C109.082 45.3683 109.166 45.3767 109.217 45.3934C109.217 45.3934 109.124 45.5612 108.94 45.8967C108.755 46.2154 108.52 46.6432 108.235 47.18C107.967 47.7 107.69 48.2619 107.405 48.8658C107.12 49.453 106.86 50.0233 106.625 50.5769C106.407 51.1137 106.264 51.5666 106.197 51.9357C106.147 52.1537 106.122 52.355 106.122 52.5396C106.122 52.8079 106.172 52.9841 106.273 53.068C106.373 53.1518 106.482 53.1938 106.6 53.1938C106.918 53.1938 107.254 53.026 107.606 52.6905C107.958 52.3383 108.294 51.9105 108.613 51.4072C108.948 50.904 109.242 50.4175 109.493 49.9478C109.762 49.4613 109.955 49.0923 110.072 48.8407C110.139 48.7065 110.19 48.631 110.223 48.6142C110.257 48.5807 110.307 48.5639 110.374 48.5639C110.475 48.5639 110.525 48.631 110.525 48.7652C110.525 48.8491 110.5 48.9413 110.45 49.042C110.248 49.4278 110.005 49.8891 109.72 50.4259C109.451 50.9627 109.141 51.4911 108.789 52.0111C108.437 52.5144 108.051 52.9421 107.631 53.2944C107.212 53.6299 106.759 53.7977 106.273 53.7977C105.937 53.7977 105.585 53.6802 105.216 53.4454C104.863 53.2105 104.687 52.7744 104.687 52.137C104.687 51.9524 104.704 51.7595 104.738 51.5582C104.771 51.3401 104.83 51.1053 104.914 50.8537C105.048 50.5182 105.207 50.1575 105.392 49.7717C105.576 49.3859 105.878 48.8575 106.298 48.1865C106.415 48.0019 106.482 47.8593 106.499 47.7587C106.533 47.658 106.549 47.5742 106.549 47.5071C106.549 47.3058 106.457 47.2051 106.273 47.2051C106.122 47.2051 105.895 47.289 105.593 47.4567C105.308 47.6245 104.947 47.9181 104.511 48.3374C104.092 48.74 103.589 49.3104 103.001 50.0485C102.431 50.7866 101.769 51.8769 101.014 53.3196C100.896 53.5377 100.762 53.6551 100.611 53.6719C100.477 53.6886 100.284 53.7054 100.032 53.7222C99.8646 53.739 99.7052 53.7473 99.5542 53.7473C99.4033 53.7641 99.2774 53.8144 99.1768 53.8983ZM107.605 53.8983C108.309 52.4557 109.039 50.9459 109.794 49.3691C110.565 47.7755 111.354 46.1735 112.159 44.5631C112.964 42.9527 113.761 41.4178 114.549 39.9583C114.835 39.4551 115.095 39.0609 115.329 38.7757C115.581 38.4905 115.908 38.348 116.311 38.348C116.462 38.348 116.638 38.3731 116.839 38.4234C117.041 38.4738 117.233 38.4821 117.418 38.4486C117.2 38.6834 116.898 39.0944 116.512 39.6816C116.143 40.2687 115.724 40.9732 115.254 41.7952C114.801 42.6172 114.315 43.5062 113.795 44.4624C113.291 45.4018 112.788 46.358 112.285 47.3309C111.798 48.2871 111.345 49.1846 110.926 50.0233C111.262 49.5872 111.605 49.1762 111.958 48.7904C112.31 48.4045 112.654 48.069 112.989 47.7839C113.358 47.4484 113.82 47.0961 114.373 46.727C114.944 46.358 115.506 46.0393 116.059 45.7709C116.63 45.5025 117.082 45.3683 117.418 45.3683C117.535 45.3683 117.619 45.3767 117.67 45.3934C117.67 45.3934 117.577 45.5612 117.393 45.8967C117.208 46.2322 116.973 46.6599 116.688 47.18C116.42 47.7 116.135 48.2619 115.833 48.8658C115.548 49.4697 115.296 50.0485 115.078 50.602C114.86 51.1388 114.717 51.5834 114.65 51.9357C114.6 52.2041 114.575 52.4305 114.575 52.615C114.575 52.8834 114.625 53.068 114.726 53.1686C114.826 53.2525 114.935 53.2944 115.053 53.2944C115.338 53.2944 115.648 53.1183 115.984 52.766C116.319 52.4137 116.646 51.986 116.965 51.4827C117.284 50.9627 117.569 50.4595 117.821 49.973C118.089 49.4865 118.29 49.1091 118.424 48.8407C118.525 48.6562 118.626 48.5639 118.726 48.5639C118.827 48.5639 118.877 48.631 118.877 48.7652C118.877 48.8323 118.852 48.9329 118.802 49.0671C118.584 49.5033 118.332 49.9981 118.047 50.5517C117.779 51.0885 117.468 51.6085 117.116 52.1118C116.781 52.5983 116.403 53.0009 115.984 53.3196C115.581 53.6383 115.145 53.7977 114.675 53.7977C114.34 53.7977 113.996 53.6802 113.644 53.4454C113.291 53.2105 113.115 52.7828 113.115 52.1621C113.115 51.9776 113.132 51.7847 113.166 51.5834C113.199 51.3653 113.258 51.1221 113.342 50.8537C113.442 50.5182 113.61 50.1491 113.845 49.7465C114.08 49.3271 114.382 48.8071 114.751 48.1865C114.919 47.9013 115.002 47.6748 115.002 47.5071C115.002 47.3058 114.902 47.2051 114.7 47.2051C114.533 47.2051 114.306 47.289 114.021 47.4567C113.736 47.6245 113.375 47.9181 112.939 48.3374C112.52 48.74 112 49.3271 111.379 50.0988C110.758 50.8704 110.096 51.9524 109.391 53.3447C109.274 53.5628 109.14 53.6802 108.989 53.697C108.854 53.697 108.67 53.7054 108.435 53.7222C108.284 53.739 108.133 53.7473 107.982 53.7473C107.831 53.7641 107.705 53.8144 107.605 53.8983ZM119.632 53.697C118.994 53.697 118.525 53.4873 118.223 53.068C117.921 52.6318 117.77 52.1034 117.77 51.4827C117.77 50.7279 117.946 49.9394 118.298 49.1175C118.634 48.3458 119.062 47.6413 119.582 47.0038C120.102 46.3664 120.664 45.8547 121.267 45.4689C121.871 45.0663 122.458 44.865 123.029 44.865C123.666 44.865 124.136 45.0747 124.438 45.4941C124.74 45.9134 124.891 46.4419 124.891 47.0793C124.891 47.851 124.715 48.6394 124.362 49.4446C124.161 49.8975 123.876 50.4007 123.507 50.9543C123.138 51.4911 122.718 51.986 122.249 52.4389C122.349 52.6234 122.492 52.7828 122.677 52.917C122.861 53.0344 123.113 53.0931 123.431 53.0931C123.834 53.0931 124.211 52.9254 124.564 52.5899C124.933 52.2544 125.268 51.8518 125.57 51.3821C125.872 50.8956 126.141 50.4091 126.375 49.9227C126.61 49.4362 126.803 49.042 126.954 48.74C127.004 48.6394 127.088 48.5891 127.206 48.5891C127.273 48.5891 127.323 48.6226 127.357 48.6897C127.39 48.74 127.382 48.8239 127.332 48.9413C127.231 49.1929 127.063 49.5704 126.828 50.0736C126.593 50.5601 126.308 51.0717 125.973 51.6085C125.637 52.1286 125.251 52.5731 124.815 52.9421C124.379 53.3112 123.893 53.4957 123.356 53.4957C122.987 53.4957 122.668 53.437 122.4 53.3196C122.131 53.1854 121.913 53.026 121.746 52.8415C121.393 53.1099 121.041 53.3196 120.689 53.4706C120.336 53.6215 119.984 53.697 119.632 53.697ZM120.009 53.1434C120.462 53.1434 120.949 52.9254 121.469 52.4892C121.335 52.2879 121.234 52.0782 121.167 51.8602C121.1 51.6421 121.066 51.4408 121.066 51.2563C121.066 50.9543 121.133 50.6943 121.267 50.4762C121.418 50.2582 121.645 50.1491 121.947 50.1491C122.165 50.1491 122.341 50.233 122.475 50.4007C122.626 50.5517 122.702 50.7279 122.702 50.9292C122.702 50.9795 122.693 51.0298 122.677 51.0801C122.677 51.1137 122.668 51.1556 122.651 51.2059C122.937 50.8201 123.205 50.3672 123.457 49.8472C124.01 48.6562 124.287 47.6748 124.287 46.9032C124.287 46.5173 124.211 46.2154 124.06 45.9973C123.909 45.7792 123.683 45.6702 123.381 45.6702C123.029 45.6702 122.643 45.8212 122.224 46.1231C121.821 46.4251 121.427 46.8277 121.041 47.3309C120.672 47.8342 120.345 48.3961 120.06 49.0168C119.791 49.5872 119.573 50.1407 119.405 50.6775C119.254 51.1976 119.179 51.6505 119.179 52.0363C119.179 52.3718 119.246 52.6402 119.38 52.8415C119.514 53.0428 119.724 53.1434 120.009 53.1434Z" fill="#C1345F"/>
<path d="M95.2408 79.7598C94.9861 79.7259 94.6381 79.658 94.1967 79.5561C93.7553 79.4712 93.3054 79.293 92.847 79.0213C92.3886 78.7497 91.9981 78.3338 91.6756 77.7735C91.353 77.2303 91.1917 76.5002 91.1917 75.5835C91.1917 74.5309 91.4039 73.3765 91.8284 72.1202C92.2698 70.8469 92.8046 69.5227 93.4327 68.1475C94.0609 66.7724 94.6635 65.4142 95.2408 64.073C95.6991 63.0035 95.9283 62.1886 95.9283 61.6284C95.9283 61.0681 95.7161 60.788 95.2917 60.788C94.8163 60.788 94.1033 61.17 93.1526 61.9339C92.2188 62.6809 91.1323 63.8184 89.893 65.3463C89.5704 65.7538 89.1545 66.3225 88.6452 67.0525C88.1359 67.7656 87.5926 68.5635 87.0154 69.4463C86.4382 70.3121 85.8694 71.1949 85.3092 72.0947C84.7659 72.9775 84.2821 73.7924 83.8576 74.5394C83.4502 75.2864 83.1531 75.8806 82.9664 76.322C82.7457 76.8483 82.491 77.2048 82.2024 77.3915C81.9138 77.5953 81.6421 77.6971 81.3875 77.6971C81.1668 77.6971 80.9715 77.6377 80.8018 77.5189C80.649 77.4 80.5726 77.2557 80.5726 77.086C80.5726 76.9841 80.5981 76.8992 80.649 76.8313C80.7508 76.6276 81.0225 76.1352 81.4639 75.3543C81.9053 74.5734 82.4061 73.5378 82.9664 72.2475C83.5266 70.9403 84.0614 69.4293 84.5707 67.7146C85.097 65.983 85.4874 64.073 85.7421 61.9849C85.7761 61.7472 85.793 61.4925 85.793 61.2209C85.793 60.6267 85.6912 60.1938 85.4874 59.9222C85.2837 59.6335 85.0121 59.4892 84.6725 59.4892C84.2991 59.4892 83.8746 59.6505 83.3993 59.9731C82.9239 60.2957 82.4401 60.7625 81.9477 61.3737C81.0989 62.4432 80.3519 63.4364 79.7068 64.3532C79.0616 65.253 78.4674 66.1527 77.9242 67.0525C77.3979 67.9523 76.8716 68.9115 76.3453 69.9301C75.836 70.9488 75.2927 72.0947 74.7155 73.368C74.1383 74.6243 73.4762 76.0843 72.7292 77.7481C72.6104 78.0197 72.4066 78.2149 72.118 78.3338C71.8464 78.4526 71.5917 78.512 71.3541 78.512C71.1164 78.512 70.9211 78.4611 70.7683 78.3592C70.6155 78.2574 70.5646 78.1131 70.6155 77.9263C71.057 77.2472 71.5323 76.3899 72.0416 75.3543C72.5509 74.3187 73.0602 73.1897 73.5696 71.9674C74.0958 70.728 74.5797 69.4802 75.0211 68.2239C75.4795 66.9507 75.8699 65.7538 76.1925 64.6333C76.5151 63.4958 76.7358 62.5112 76.8546 61.6793C76.8886 61.4077 76.914 61.153 76.931 60.9153C76.948 60.6776 76.9565 60.4484 76.9565 60.2277C76.9565 58.9205 76.6764 57.9868 76.1161 57.4265C75.5728 56.8663 74.8683 56.5862 74.0025 56.5862C73.2725 56.5862 72.4745 56.7559 71.6087 57.0955C70.7599 57.418 69.894 57.8679 69.0112 58.4452C68.1454 59.0224 67.3135 59.693 66.5156 60.4569C65.7177 61.2039 65.0131 62.0103 64.4019 62.8762C63.7908 63.725 63.3239 64.5908 63.0013 65.4737C62.7806 66.1018 62.6109 66.7045 62.492 67.2817C62.3902 67.842 62.3392 68.3682 62.3392 68.8606C62.3392 69.8113 62.509 70.6177 62.8485 71.2798C63.2051 71.9419 63.6719 72.4427 64.2492 72.7823C64.8434 73.1218 65.48 73.2916 66.1591 73.2916C66.3968 73.2916 66.6599 73.2661 66.9485 73.2152C67.2541 73.1473 67.5087 73.0794 67.7125 73.0115C68.2048 72.8247 68.6802 72.5361 69.1385 72.1456C69.5969 71.7382 70.0044 71.2713 70.3609 70.745C70.7174 70.2187 70.9975 69.684 71.2013 69.1407C71.405 68.5974 71.5068 68.0881 71.5068 67.6128C71.5068 67.1204 71.371 66.713 71.0994 66.3904C70.8278 66.0678 70.3948 65.9066 69.8007 65.9066C69.7327 65.9066 69.6563 65.9151 69.5715 65.932C69.5036 65.932 69.4272 65.932 69.3423 65.932H69.2659C69.147 65.932 69.0367 65.9151 68.9348 65.8811C68.833 65.8302 68.782 65.7708 68.782 65.7028C68.782 65.6349 68.8669 65.5585 69.0367 65.4737C69.2234 65.3888 69.5545 65.3463 70.0298 65.3463C70.7938 65.3463 71.3625 65.5755 71.736 66.0339C72.1265 66.4753 72.3217 67.044 72.3217 67.7401C72.3217 68.3682 72.152 69.0473 71.8124 69.7773C71.4729 70.5073 70.9636 71.2034 70.2845 71.8655C69.6054 72.5276 68.7481 73.0709 67.7125 73.4953C67.1013 73.733 66.5071 73.8518 65.9299 73.8518C65.081 73.8518 64.2746 73.6396 63.5107 73.2152C62.7467 72.7738 62.127 72.1541 61.6517 71.3562C61.1763 70.5413 60.9386 69.5821 60.9386 68.4786C60.9386 67.9863 60.9896 67.4685 61.0914 66.9252C61.2103 66.3649 61.397 65.7877 61.6517 65.1935C62.2119 63.8863 62.9674 62.6809 63.9181 61.5774C64.8858 60.4569 65.9553 59.4892 67.1268 58.6743C68.2982 57.8425 69.4866 57.1973 70.6919 56.739C71.8973 56.2806 73.0178 56.0514 74.0534 56.0514C75.3097 56.0514 76.3453 56.4249 77.1602 57.1719C77.9921 57.9189 78.408 59.1242 78.408 60.788C78.408 60.9068 78.3995 61.0681 78.3825 61.2718C78.3825 61.4586 78.3741 61.6029 78.3571 61.7047C78.2552 62.5706 78.077 63.4364 77.8223 64.3022C77.5846 65.1681 77.3215 65.9999 77.0329 66.7979C76.9819 66.9337 76.9395 67.078 76.9055 67.2308C76.8886 67.3666 76.8801 67.46 76.8801 67.5109C76.8801 67.5958 76.8971 67.6382 76.931 67.6382C76.9989 67.6382 77.1347 67.46 77.3385 67.1034C77.7289 66.3904 78.077 65.7708 78.3825 65.2445C78.7051 64.7012 79.0192 64.2089 79.3248 63.7675C79.6304 63.3261 79.9614 62.8762 80.3179 62.4178C80.6745 61.9594 81.0819 61.4501 81.5403 60.8898C82.0666 60.2617 82.6693 59.7609 83.3483 59.3874C84.0274 59.0139 84.681 58.8271 85.3092 58.8271C85.8694 58.8271 86.3448 59.0139 86.7353 59.3874C87.1257 59.7609 87.321 60.3975 87.321 61.2973C87.321 61.3992 87.321 61.484 87.321 61.552C87.321 61.6199 87.3125 61.7217 87.2955 61.8575C87.1427 63.4873 86.8201 65.0917 86.3278 66.6705C85.8355 68.2324 85.3262 69.8113 84.7999 71.4071C85.3262 70.5922 86.0392 69.5566 86.939 68.3003C87.8388 67.044 88.8234 65.7453 89.893 64.4041C91.2002 62.7743 92.4141 61.552 93.5346 60.7371C94.6551 59.9222 95.5803 59.5147 96.3103 59.5147C97.2271 59.5147 97.6855 60.075 97.6855 61.1954C97.6855 61.6199 97.6006 62.1292 97.4308 62.7234C97.278 63.3176 97.0318 63.9457 96.6923 64.6078C96.3188 65.3548 95.9029 66.2206 95.4445 67.2053C95.0031 68.173 94.5787 69.1916 94.1712 70.2612C93.7638 71.3307 93.4242 72.3833 93.1526 73.4189C92.8979 74.4375 92.7706 75.3798 92.7706 76.2456C92.7706 77.1793 92.9828 77.9348 93.4072 78.512C93.8486 79.1062 94.6041 79.3863 95.6737 79.3524H95.8265C96.0811 79.3524 96.2085 79.4033 96.2085 79.5052C96.2085 79.5731 96.1236 79.641 95.9538 79.7089C95.784 79.7768 95.5463 79.7938 95.2408 79.7598ZM101.427 76.9077C101.241 76.9247 101.028 76.8822 100.791 76.7804C100.553 76.6785 100.341 76.4918 100.154 76.2201C99.9843 75.9485 99.8994 75.5665 99.8994 75.0742C99.8994 74.6667 99.9758 74.1744 100.129 73.5972C99.9248 73.9197 99.6617 74.3187 99.3391 74.7941C99.0166 75.2524 98.6685 75.6599 98.295 76.0164C97.9725 76.322 97.6669 76.5427 97.3783 76.6785C97.0897 76.8143 96.8265 76.8822 96.5888 76.8822C96.1474 76.8822 95.7909 76.687 95.5193 76.2965C95.2477 75.8891 95.1118 75.3628 95.1118 74.7177C95.1118 74.0386 95.2816 73.2661 95.6211 72.4003C95.9607 71.5345 96.5124 70.6347 97.2764 69.7009C97.7687 69.1067 98.3629 68.6314 99.059 68.2749C99.772 67.9014 100.468 67.7146 101.147 67.7146C101.538 67.7146 101.911 67.7825 102.268 67.9183C102.624 68.0372 102.938 68.2409 103.21 68.5295C103.329 68.6484 103.388 68.7842 103.388 68.937C103.388 69.0388 103.346 69.1237 103.261 69.1916C103.176 69.2595 103.066 69.2765 102.93 69.2426C102.743 68.6484 102.344 68.3513 101.733 68.3513C101.444 68.3513 101.113 68.4446 100.74 68.6314C100.163 68.937 99.5598 69.4378 98.9317 70.1339C98.3205 70.8299 97.7857 71.5514 97.3273 72.2984C97.2594 72.4003 97.1491 72.5955 96.9963 72.8841C96.8605 73.1727 96.7247 73.4953 96.5888 73.8518C96.453 74.2083 96.3597 74.5564 96.3087 74.8959C96.2917 74.9978 96.2833 75.0742 96.2833 75.1251C96.2833 75.1591 96.2833 75.2185 96.2833 75.3034C96.2833 75.8636 96.4955 76.1437 96.9199 76.1437C97.4292 76.1437 98.0064 75.7702 98.6516 75.0232C99.093 74.48 99.4919 73.9112 99.8484 73.317C100.205 72.7229 100.57 72.0862 100.943 71.4071C101.198 70.9488 101.436 70.5668 101.656 70.2612C101.877 69.9556 102.191 69.8028 102.599 69.8028C102.785 69.8028 102.972 69.8283 103.159 69.8792C103.346 69.9301 103.541 69.9386 103.745 69.9047C103.609 70.0405 103.422 70.2951 103.184 70.6686C102.964 71.0421 102.726 71.4666 102.471 71.9419C102.217 72.4173 101.988 72.9011 101.784 73.3934C101.58 73.8858 101.436 74.3102 101.351 74.6667C101.334 74.7686 101.308 74.9129 101.275 75.0996C101.258 75.2864 101.249 75.4222 101.249 75.5071C101.249 75.9824 101.385 76.2201 101.656 76.2201C101.928 76.2201 102.217 76.0588 102.522 75.7363C102.845 75.4137 103.159 75.0148 103.465 74.5394C103.77 74.064 104.05 73.5887 104.305 73.1133C104.56 72.621 104.763 72.222 104.916 71.9164C104.984 71.7467 105.086 71.6618 105.222 71.6618C105.307 71.6618 105.349 71.7212 105.349 71.84C105.349 71.891 105.324 71.9844 105.273 72.1202C105.069 72.5446 104.823 73.0284 104.534 73.5717C104.245 74.098 103.931 74.6158 103.592 75.1251C103.252 75.6174 102.896 76.0334 102.522 76.3729C102.166 76.6955 101.801 76.8737 101.427 76.9077ZM106.127 76.8313C105.652 76.8313 105.228 76.67 104.854 76.3475C104.481 76.0079 104.294 75.4816 104.294 74.7686C104.294 74.2083 104.396 73.5208 104.599 72.7059C104.82 71.874 105.083 71.0167 105.389 70.1339C105.711 69.2341 106.025 68.4192 106.331 67.6892H104.981C104.862 67.6892 104.803 67.6043 104.803 67.4345C104.803 67.3496 104.82 67.2732 104.854 67.2053C104.905 67.1374 104.973 67.1034 105.058 67.1034H106.586C106.874 66.4583 107.18 65.8302 107.502 65.219C107.825 64.6078 108.139 64.0306 108.445 63.4873C108.835 62.8083 109.251 62.2989 109.692 61.9594C110.134 61.6199 110.516 61.4501 110.838 61.4501C111.093 61.4501 111.305 61.552 111.475 61.7557C111.645 61.9424 111.73 62.231 111.73 62.6215C111.73 62.8592 111.679 63.1902 111.577 63.6147C111.475 64.0221 111.314 64.455 111.093 64.9134C110.974 65.1511 110.804 65.4906 110.584 65.932C110.38 66.3734 110.176 66.7639 109.973 67.1034H111.195C111.314 67.1034 111.373 67.1883 111.373 67.3581C111.373 67.426 111.356 67.5024 111.322 67.5873C111.288 67.6552 111.237 67.6892 111.169 67.6892H109.667C109.243 68.4192 108.759 69.1322 108.215 69.8283C107.672 70.5243 107.027 71.2204 106.28 71.9164C106.229 72.0692 106.161 72.2899 106.076 72.5785C106.008 72.8672 105.941 73.1643 105.873 73.4698C105.822 73.7585 105.771 74.0046 105.72 74.2083C105.686 74.4121 105.669 74.5139 105.669 74.5139C105.618 74.7346 105.593 74.9384 105.593 75.1251C105.593 75.4816 105.677 75.7448 105.847 75.9145C106.017 76.0673 106.212 76.1437 106.433 76.1437C106.569 76.1437 106.705 76.1268 106.84 76.0928C106.976 76.0419 107.129 75.957 107.299 75.8381C107.893 75.4137 108.411 74.8365 108.852 74.1065C109.31 73.3765 109.709 72.6719 110.049 71.9928C110.151 71.7891 110.253 71.6873 110.355 71.6873C110.422 71.6873 110.456 71.7382 110.456 71.84C110.456 71.891 110.431 71.9844 110.38 72.1202C110.007 72.9011 109.692 73.5293 109.438 74.0046C109.183 74.48 108.937 74.8789 108.699 75.2015C108.462 75.5071 108.182 75.8127 107.859 76.1183C107.621 76.3559 107.35 76.5342 107.044 76.653C106.738 76.7719 106.433 76.8313 106.127 76.8313ZM108.139 67.1034H109.438C109.675 66.662 109.896 66.2291 110.1 65.8047C110.321 65.3803 110.516 64.9559 110.686 64.5314C110.804 64.2598 110.906 63.9542 110.991 63.6147C111.076 63.2751 111.119 63.012 111.119 62.8252C111.119 62.5706 111.059 62.4433 110.94 62.4433C110.855 62.4433 110.728 62.5196 110.558 62.6724C110.406 62.8083 110.21 63.0459 109.973 63.3855C109.667 63.8099 109.361 64.3617 109.056 65.0407C108.767 65.7028 108.462 66.3904 108.139 67.1034ZM106.484 71.1015C106.976 70.5922 107.435 70.049 107.859 69.4717C108.3 68.8945 108.708 68.3003 109.081 67.6892H107.884C107.613 68.3173 107.358 68.9285 107.12 69.5227C106.883 70.1169 106.671 70.6432 106.484 71.1015ZM111.225 76.8313C110.58 76.8313 110.104 76.6191 109.799 76.1947C109.493 75.7533 109.34 75.2185 109.34 74.5903C109.34 73.8264 109.519 73.0284 109.875 72.1966C110.215 71.4156 110.648 70.7026 111.174 70.0575C111.7 69.4123 112.269 68.8945 112.88 68.5041C113.491 68.0966 114.085 67.8929 114.663 67.8929C115.308 67.8929 115.783 68.1051 116.089 68.5295C116.394 68.9539 116.547 69.4887 116.547 70.1339C116.547 70.9148 116.369 71.7127 116.012 72.5276C115.809 72.986 115.52 73.4953 115.146 74.0556C114.773 74.5988 114.349 75.0996 113.873 75.558C113.975 75.7448 114.119 75.906 114.306 76.0419C114.493 76.1607 114.748 76.2201 115.07 76.2201C115.478 76.2201 115.86 76.0504 116.216 75.7108C116.59 75.3713 116.929 74.9638 117.235 74.4885C117.54 73.9961 117.812 73.5038 118.05 73.0115C118.287 72.5191 118.482 72.1202 118.635 71.8146C118.686 71.7127 118.771 71.6618 118.89 71.6618C118.958 71.6618 119.009 71.6957 119.043 71.7636C119.077 71.8146 119.068 71.8995 119.017 72.0183C118.915 72.273 118.746 72.6549 118.508 73.1643C118.27 73.6566 117.982 74.1744 117.642 74.7177C117.303 75.2439 116.912 75.6938 116.471 76.0673C116.029 76.4408 115.537 76.6276 114.994 76.6276C114.62 76.6276 114.298 76.5682 114.026 76.4493C113.754 76.3135 113.534 76.1522 113.364 75.9655C113.007 76.2371 112.651 76.4493 112.294 76.6021C111.938 76.7549 111.581 76.8313 111.225 76.8313ZM111.607 76.2711C112.065 76.2711 112.557 76.0504 113.084 75.609C112.948 75.4052 112.846 75.193 112.778 74.9723C112.71 74.7516 112.676 74.5479 112.676 74.3611C112.676 74.0556 112.744 73.7924 112.88 73.5717C113.033 73.351 113.262 73.2407 113.568 73.2407C113.788 73.2407 113.967 73.3255 114.102 73.4953C114.255 73.6481 114.332 73.8264 114.332 74.0301C114.332 74.081 114.323 74.1319 114.306 74.1829C114.306 74.2168 114.298 74.2593 114.281 74.3102C114.569 73.9197 114.841 73.4614 115.096 72.9351C115.656 71.7297 115.936 70.7365 115.936 69.9556C115.936 69.5651 115.86 69.2595 115.707 69.0388C115.554 68.8181 115.325 68.7078 115.019 68.7078C114.663 68.7078 114.272 68.8606 113.848 69.1662C113.44 69.4717 113.041 69.8792 112.651 70.3885C112.277 70.8978 111.946 71.4666 111.658 72.0947C111.386 72.6719 111.165 73.2322 110.996 73.7754C110.843 74.3017 110.766 74.7601 110.766 75.1506C110.766 75.4901 110.834 75.7617 110.97 75.9655C111.106 76.1692 111.318 76.2711 111.607 76.2711ZM119.118 76.9332C118.286 76.9332 117.692 76.7209 117.336 76.2965C116.996 75.8551 116.826 75.3967 116.826 74.9214C116.826 74.5309 116.92 74.1744 117.106 73.8518C117.31 73.5293 117.548 73.3595 117.819 73.3425C118.159 72.6804 118.524 71.9589 118.914 71.1779C119.322 70.397 119.695 69.6415 120.035 68.9115C120.273 68.4192 120.57 67.9438 120.926 67.4854C121.3 67.0271 121.707 66.7639 122.149 66.696H122.403C122.539 66.696 122.658 66.7045 122.76 66.7215C122.879 66.7384 122.997 66.7724 123.116 66.8233C123.303 66.9082 123.396 67.0355 123.396 67.2053C123.396 67.3072 123.337 67.3581 123.218 67.3581C123.167 67.3581 123.099 67.3326 123.014 67.2817C122.811 67.1968 122.632 67.1544 122.48 67.1544C122.378 67.1544 122.284 67.1798 122.199 67.2308C121.877 67.4005 121.648 67.6382 121.512 67.9438C121.393 68.2494 121.334 68.572 121.334 68.9115C121.334 69.1831 121.359 69.4633 121.41 69.7519C121.478 70.0235 121.554 70.2697 121.639 70.4904C121.826 70.9657 122.021 71.4326 122.225 71.891C122.446 72.3494 122.556 72.8417 122.556 73.368C122.556 73.8773 122.386 74.4206 122.047 74.9978C121.707 75.558 121.274 76.0079 120.748 76.3475L120.926 76.3729C121.011 76.3899 121.07 76.3984 121.104 76.3984C121.138 76.3984 121.164 76.3984 121.181 76.3984C121.571 76.3984 121.936 76.288 122.276 76.0673C122.632 75.8297 122.946 75.541 123.218 75.2015C123.49 74.862 123.795 74.3866 124.135 73.7754C124.491 73.1643 124.831 72.5191 125.153 71.84C125.204 71.7552 125.264 71.7127 125.332 71.7127C125.417 71.7127 125.476 71.7467 125.51 71.8146C125.561 71.8655 125.569 71.9334 125.535 72.0183C125.315 72.4937 125.06 73.0115 124.771 73.5717C124.5 74.115 124.186 74.6413 123.829 75.1506C123.473 75.6429 123.057 76.0504 122.581 76.3729C122.123 76.6785 121.605 76.8313 121.028 76.8313C120.892 76.8313 120.748 76.8228 120.595 76.8058C120.442 76.7889 120.29 76.7549 120.137 76.704C119.967 76.7719 119.789 76.8228 119.602 76.8568C119.432 76.9077 119.271 76.9332 119.118 76.9332ZM119.882 76.1692C120.171 75.9315 120.425 75.5835 120.646 75.1251C120.884 74.6667 121.003 74.064 121.003 73.317C121.003 72.6549 120.935 71.9504 120.799 71.2034C120.663 70.4564 120.595 69.7943 120.595 69.2171C120.595 69.0983 120.595 68.9964 120.595 68.9115C120.612 68.8096 120.629 68.7163 120.646 68.6314C120.425 69.0898 120.171 69.6245 119.882 70.2357C119.593 70.8299 119.305 71.4071 119.016 71.9674C118.728 72.5276 118.481 73.003 118.278 73.3934C118.278 73.3934 118.32 73.4019 118.405 73.4189C118.507 73.4189 118.6 73.4783 118.685 73.5972C118.77 73.699 118.804 73.9112 118.787 74.2338C118.77 74.6582 118.863 75.0572 119.067 75.4307C119.288 75.7872 119.56 76.0334 119.882 76.1692ZM118.914 76.5257C119.016 76.5257 119.11 76.5172 119.195 76.5002C119.279 76.4663 119.356 76.4408 119.424 76.4238C119.169 76.2371 118.94 75.9909 118.736 75.6853C118.549 75.3628 118.439 74.9553 118.405 74.463C118.099 74.7856 117.947 75.1336 117.947 75.5071C117.947 75.7787 118.032 76.0164 118.201 76.2201C118.371 76.4238 118.609 76.5257 118.914 76.5257Z" fill="#C1345F"/>
<path fill-rule="evenodd" clip-rule="evenodd" d="M124.488 70.4959C125.786 76.711 126.9 81.2416 127.68 83.4774C127.824 83.8907 127.923 84.254 127.9 84.2847C127.877 84.3154 127.765 84.4302 127.651 84.5396C127.537 84.649 127.062 85.2449 126.596 85.8637C125.65 87.1187 125.002 87.8537 124.507 88.2341C123.525 88.9885 122.509 89.2182 121.423 88.9312C120.847 88.7791 120.403 88.5676 119.184 87.8652C118.641 87.5522 118.018 87.2261 117.8 87.1405C116.634 86.6825 115.757 86.8965 114.891 87.8504L114.694 88.0679L114.963 88.2789L115.231 88.4898L115.43 88.2691C116.306 87.2944 116.984 87.3482 119.028 88.5551C119.996 89.1265 120.862 89.5187 121.433 89.6437C122.697 89.921 124.069 89.5256 125.153 88.5709C125.734 88.0599 126.203 87.516 127.195 86.2C127.641 85.6089 128.055 85.0849 128.114 85.0355L128.222 84.9457L128.437 85.3139C128.676 85.7259 128.927 85.9381 129.062 85.8444C129.178 85.7646 129.231 85.4105 129.187 85.002L129.152 84.6719L129.51 84.761C130.76 85.0721 132.27 86.3709 133.677 88.3455C134.26 89.1648 135.302 91.0901 135.738 92.1521C136.382 93.726 136.731 94.2242 137.594 94.8074C138.735 95.578 140.272 95.7226 141.866 95.2093C143.459 94.6963 144.837 93.6583 145.573 92.4175C146.35 91.1072 146.372 89.7301 145.637 88.4339C145.203 87.6691 144.766 87.2063 143.722 86.4023C141.987 85.0679 141.644 84.4717 142.169 83.7055C142.419 83.341 142.835 82.9909 144.01 82.1585C145.405 81.1699 145.979 80.491 146.123 79.6603C146.242 78.9776 145.949 78.0248 145.378 77.2341C144.808 76.4452 143.801 75.557 142.756 75.3724L142.315 75.4763L142.148 75.0559C141.975 74.4724 142.469 75.5818 142.009 75.0382C141.704 74.6782 142.308 75.3506 141.622 74.8845C140.909 74.4003 141.487 76.239 141 76.0848C139.955 75.7533 142.997 76.0351 142.002 76.2512C139.172 76.8658 142.082 72.9683 142.231 75.8611C142.332 77.8271 140.107 74.6534 141.841 75.5764C143.962 76.7049 139.392 76.6974 141.181 75.1399C141.679 74.7066 141.775 76.6956 142.041 76.1372C142.449 75.2826 142.094 76.8143 142.04 75.9327C142.03 75.7739 141.17 75.1559 141.181 75.1399C141.192 75.1239 142.817 76.0667 143.103 76.1519C143.801 76.3601 144.405 77.0526 144.785 77.5643C145.331 78.298 145.585 79.2149 145.396 79.7702C145.188 80.3805 144.822 80.7228 142.759 82.2339C141.606 83.079 141.196 83.7012 141.288 84.4668C141.338 84.8794 141.526 85.2713 141.874 85.6894C142.148 86.0185 142.394 86.2317 143.392 87.0081C144.641 87.9791 145.244 88.7931 145.436 89.7691C145.622 90.7139 145.388 91.5683 144.689 92.493C143.772 93.7071 142.372 94.5178 140.783 94.7559C138.858 95.0443 137.391 94.3025 136.712 92.6982C135.785 90.5053 135.216 89.4001 134.399 88.2016C133.425 86.7738 132.654 85.9376 131.565 85.1279C130.673 84.4648 130.238 84.2407 129.504 84.0677L129.021 83.9541L128.891 83.3554C128.383 81.0195 126.723 75.7665 124.654 69.9466C124.135 68.485 124.069 68.3097 124.051 68.3409C124.046 68.3502 124.243 69.32 124.488 70.4959Z" fill="#C1345F"/>
<path fill-rule="evenodd" clip-rule="evenodd" d="M49.0798 61.4741C48.4674 61.5036 47.164 61.613 47.0875 61.6413C46.999 61.6741 47.5604 61.7374 48.4973 61.8001C49.2249 61.8489 51.886 61.8489 52.6135 61.8001C53.5438 61.7378 54.1117 61.6741 54.0245 61.6418C53.8145 61.5639 52.312 61.4825 50.8855 61.4717C50.0525 61.4653 49.24 61.4664 49.0798 61.4741ZM46.012 62.6939V63.082L46.1576 63.1553C46.6503 63.403 47.5054 63.5798 48.6138 63.6631C50.6332 63.8148 53.0334 63.7086 54.1805 63.4168C54.3908 63.3633 54.6835 63.2638 54.8309 63.1958L55.0988 63.0721V62.6889C55.0988 62.4763 55.0826 62.3058 55.0624 62.3058C55.0423 62.3058 54.9149 62.3315 54.7792 62.3631C53.9642 62.5524 53.1015 62.6181 51.0991 62.6435C48.8179 62.6724 47.4048 62.5931 46.4216 62.3808C46.2304 62.3395 46.06 62.3058 46.043 62.3058C46.026 62.3058 46.012 62.4804 46.012 62.6939ZM45.7222 63.8198C45.6469 63.9656 45.6457 64.1828 45.7194 64.3255C45.9527 64.7774 47.0079 65.0888 48.7519 65.2205C49.4454 65.2728 51.6101 65.2736 52.3223 65.2217C53.4583 65.1391 54.3262 64.9775 54.807 64.7591C55.1218 64.6162 55.2483 64.5192 55.3607 64.335C55.4684 64.1586 55.4716 63.9975 55.371 63.8322L55.294 63.7057L55.12 63.8386C54.6959 64.1629 53.7048 64.3836 52.2084 64.487C51.32 64.5484 48.8571 64.5128 48.1478 64.4283C46.9926 64.2907 46.3058 64.0975 45.9067 63.7978L45.7819 63.7042L45.7222 63.8198ZM45.7232 65.4903C45.596 65.7368 45.6708 66.032 45.9052 66.2081C46.5346 66.6812 47.739 66.8867 50.0945 66.9229C53.2042 66.9706 54.9099 66.6726 55.3605 66.0029C55.4689 65.8418 55.4722 65.6709 55.3701 65.5032L55.2922 65.3752L55.1468 65.4923C54.7895 65.7799 53.9564 65.9947 52.6912 66.1255C51.918 66.2054 48.9886 66.192 48.2255 66.1051C47.0219 65.9681 46.3063 65.7711 45.9076 65.4672L45.7839 65.3728L45.7232 65.4903ZM45.723 67.0594C45.6887 67.1085 45.6625 67.2265 45.6625 67.3325C45.6625 67.4961 45.6816 67.54 45.8172 67.6873C46.1125 68.0081 46.7898 68.2356 47.8597 68.3734C49.5232 68.5876 52.0516 68.5675 53.5649 68.328C54.7181 68.1455 55.3539 67.8344 55.4326 67.414C55.4562 67.2879 55.3941 67.031 55.3304 66.9915C55.3114 66.9798 55.2035 67.0316 55.0906 67.1066C54.6436 67.4034 53.8108 67.5978 52.4776 67.7167C51.7773 67.779 49.2988 67.78 48.6332 67.7181C47.2067 67.5855 46.3553 67.3796 45.9483 67.0686C45.7959 66.9523 45.7979 66.9523 45.723 67.0594ZM45.7168 68.7432C45.6104 68.9059 45.6601 69.2018 45.8221 69.3695C46.2565 69.8195 47.3492 70.0634 49.3904 70.166C51.1699 70.2555 53.1264 70.1335 54.2057 69.8658C55.1412 69.6338 55.5585 69.2728 55.4105 68.8234C55.3854 68.7475 55.3489 68.6754 55.3293 68.6632C55.3097 68.6511 55.2137 68.6963 55.1159 68.7636C54.5706 69.1394 53.4665 69.3456 51.5553 69.4285C48.9857 69.5399 46.6162 69.2513 45.9553 68.7464C45.8826 68.6908 45.8135 68.6454 45.8019 68.6454C45.7903 68.6454 45.752 68.6894 45.7168 68.7432ZM45.7232 70.3131C45.5955 70.5604 45.6704 70.8531 45.9079 71.0345C46.5386 71.5164 48.0959 71.7573 50.5742 71.7564C52.2172 71.7558 53.3505 71.6583 54.1968 71.4445C54.7097 71.3149 54.9882 71.1953 55.1899 71.0178C55.4484 70.7905 55.5043 70.5936 55.3829 70.3385C55.3153 70.1966 55.2769 70.1716 55.2337 70.2416C55.1808 70.3273 54.8726 70.4907 54.5678 70.5945C54.1622 70.7327 53.5934 70.8424 52.8398 70.9278C52.0744 71.0146 49.279 71.0265 48.439 70.9467C47.1715 70.8261 46.3217 70.6056 45.9076 70.29L45.7839 70.1956L45.7232 70.3131ZM44.5364 71.9177C42.1683 72.0369 39.7503 73.1258 38.1485 74.7944C37.3723 75.6029 36.9012 76.3716 36.6851 77.1824C36.4848 77.934 36.5866 78.5366 37.0029 79.0641L37.1525 79.2536L37.0552 79.3971C36.8697 79.6705 36.6943 80.0964 36.6568 80.3645C36.3643 82.4566 39.717 83.6493 44.3228 83.0914C48.4328 82.5935 52.1473 80.8969 53.1294 79.0687C53.3407 78.6754 53.4071 78.4325 53.4057 78.0575C53.3998 76.4363 51.3107 75.4459 47.8954 75.4449C46.2336 75.4445 44.6434 75.654 42.9462 76.0972C40.822 76.6518 38.7751 77.6312 37.8104 78.5545C37.6396 78.718 37.5998 78.7005 37.4372 78.3906C37.2307 77.9968 37.3219 77.3634 37.6876 76.6525C38.471 75.129 40.2223 73.7555 42.2169 73.0999C43.2035 72.7758 44.0095 72.6514 45.1235 72.6514C45.8585 72.6514 45.8625 72.6518 45.994 72.7523C46.3162 72.9984 47.1424 73.212 48.2643 73.3392C49.1288 73.4372 51.9749 73.4369 52.8465 73.3388C53.8664 73.2239 54.6715 73.0316 55.0084 72.8223C55.4121 72.5714 55.5537 72.2038 55.3503 71.9345C55.2944 71.8605 55.2922 71.8606 55.2059 71.94C55.0882 72.048 54.7854 72.195 54.4775 72.2934C53.5724 72.5827 52.0456 72.7147 50.0312 72.6777C48.023 72.6409 46.8743 72.4682 46.1276 72.0911C45.8211 71.9363 45.7692 71.9227 45.4286 71.9076C45.2262 71.8986 44.8247 71.9032 44.5364 71.9177ZM46.0204 73.9821L46.0314 74.421L46.293 74.4865C46.5968 74.5624 47.2778 74.6529 48.0507 74.7198C48.805 74.7852 52.2513 74.7852 53.0601 74.7199C53.7702 74.6626 54.6478 74.5429 54.9046 74.4684L55.0794 74.4177L55.0904 73.9805L55.1014 73.5433L54.9082 73.6413C54.4923 73.8524 53.6899 74.0258 52.6135 74.1372C51.9569 74.2052 49.1539 74.2052 48.4973 74.1372C47.4209 74.0258 46.6185 73.8524 46.2026 73.6413L46.0095 73.5433L46.0204 73.9821ZM48.7109 76.2079C49.8908 76.249 50.9623 76.4866 51.7204 76.8753C52.5731 77.3125 52.8585 77.8861 52.5564 78.5553C52.3838 78.9378 51.989 79.2561 51.2156 79.6365C50.0601 80.2047 48.5853 80.5639 46.6722 80.7433C46.0466 80.8019 44.1532 80.8031 43.5267 80.7453C41.342 80.5434 39.4872 80.0315 38.4069 79.3322L38.1994 79.1978L38.4069 79.0151C38.5211 78.9146 38.7805 78.7208 38.9834 78.5845C40.6425 77.4695 43.1326 76.6379 45.813 76.3038C46.4033 76.2302 47.731 76.1541 48.0119 76.1778C48.076 76.1832 48.3905 76.1967 48.7109 76.2079ZM37.8695 79.8613C38.2506 80.1466 39.1015 80.5448 39.8571 80.7914C41.4349 81.3063 43.052 81.534 45.1189 81.5323C46.4895 81.5313 47.7586 81.4138 48.8299 81.189C49.218 81.1076 48.0299 81.5303 47.2407 81.7545C44.5216 82.5267 41.4993 82.7001 39.4856 82.1992C38.4214 81.9345 37.7295 81.5301 37.4852 81.03C37.3935 80.8423 37.3833 80.7833 37.3993 80.5338C37.4136 80.3103 37.4444 80.2 37.5457 80.0098C37.6162 79.8772 37.6901 79.7688 37.7099 79.7688C37.7297 79.7688 37.8015 79.8105 37.8695 79.8613Z" fill="#C1345F"/>
</svg>
